# Rhino

mtllib reduced_mesh_chair.mtl
usemtl diffuse_0
v 6.1517879314698867 0.48320162534290351 -6.2449253389519441
v 6.2140675235608152 0.04306674392403867 -6.2204962919335163
v 6.1023317965324928 -0.00033421592573787694 -6.2121140589439383
v 6.1583952903747541 0 -5.7919213145774986
v 6.1880532898860325 0.49389040031636011 -5.6846933782237912
v 6.1690233799256484 0.26348615250776258 -5.7971093063427652
v 6.1690233799256484 0.26348615250776258 -5.7971093063427652
v 6.1880532898860325 0.49389040031636011 -5.6846933782237912
v 6.1248891788871598 0.29509815453492527 -6.1160236979629348
v 6.1690233799256484 0.26348615250776258 -5.7971093063427652
v 6.1248891788871598 0.29509815453492527 -6.1160236979629348
v 6.2394606978603324 0.26629195229057628 -6.0723371006175579
v 6.1517879314698867 0.48320162534290351 -6.2449253389519441
v 6.2347237474573598 0.24648262210756566 -6.2167348803464613
v 6.2140675235608152 0.04306674392403867 -6.2204962919335163
v 6.1690233799256484 0.26348615250776258 -5.7971093063427652
v 6.3004958688618062 0.30130833520472711 -5.7574995633818009
v 6.2487470097042284 0.004777769782425798 -5.7831124949244215
v 6.1690233799256484 0.26348615250776258 -5.7971093063427652
v 6.2394606978603324 0.26629195229057628 -6.0723371006175579
v 6.3004958688618062 0.30130833520472711 -5.7574995633818009
v 6.0964989640435467 0.00079983291777074817 -6.1002795706532922
v 6.6109177982032215 0.00019693525881686827 -6.11895011057109
v 6.2214298819980112 0.050015496347479274 -6.1114652193460808
v 6.0964989640435467 0.00079983291777074817 -6.1002795706532922
v 6.1023317965324928 -0.00033421592573787694 -6.2121140589439383
v 6.6109177982032215 0.00019693525881686827 -6.11895011057109
v 6.2214298819980112 0.050015496347479274 -6.1114652193460808
v 6.6109177982032215 0.00019693525881686827 -6.11895011057109
v 6.5176610960753232 0.066228885588104497 -6.1608283884354123
v 6.2140675235608152 0.04306674392403867 -6.2204962919335163
v 6.2347237474573598 0.24648262210756566 -6.2167348803464613
v 6.2214298819980112 0.050015496347479274 -6.1114652193460808
v 6.2347237474573598 0.24648262210756566 -6.2167348803464613
v 6.2609348484865652 0.25764449325599142 -6.1342882143831732
v 6.2214298819980112 0.050015496347479274 -6.1114652193460808
v 6.2300110681717182 0.40323017895182095 -6.1344891872193195
v 6.2214298819980112 0.050015496347479274 -6.1114652193460808
v 6.2609348484865652 0.25764449325599142 -6.1342882143831732
v 6.2394606978603324 0.26629195229057628 -6.0723371006175579
v 6.2741406091478664 0.40306260763997342 -5.7628098460529333
v 6.3004958688618062 0.30130833520472711 -5.7574995633818009
v 6.2487470097042284 0.004777769782425798 -5.7831124949244215
v 6.3004958688618062 0.30130833520472711 -5.7574995633818009
v 6.2947674163378045 0.35503322807439797 -5.6725177523022543
v 6.2140675235608152 0.04306674392403867 -6.2204962919335163
v 6.5176610960753232 0.066228885588104497 -6.1608283884354123
v 6.6296653953668319 -0.0051820338976910196 -6.2462596017998049
v 6.5878833267346906 0.47938875304385736 -6.1117673995700148
v 6.5602295963336017 0.43857988270671455 -6.2536333627631349
v 6.1517879314698867 0.48320162534290351 -6.2449253389519441
v 6.2741406091478664 0.40306260763997342 -5.7628098460529333
v 6.2300110681717182 0.40323017895182095 -6.1344891872193195
v 6.4978567090438926 0.38396654888212961 -5.8031483908876051
v 6.4978567090438926 0.38396654888212961 -5.8031483908876051
v 6.2300110681717182 0.40323017895182095 -6.1344891872193195
v 6.569853489061563 0.3696335516026068 -6.1418070663873374
v 6.2609348484865652 0.25764449325599142 -6.1342882143831732
v 6.5300961520520477 0.22090048863524664 -6.1332839920135847
v 6.2300110681717182 0.40323017895182095 -6.1344891872193195
v 6.2300110681717182 0.40323017895182095 -6.1344891872193195
v 6.5300961520520477 0.22090048863524664 -6.1332839920135847
v 6.569853489061563 0.3696335516026068 -6.1418070663873374
v 6.547688338702657 0.32676101429501059 -5.7220658554691211
v 6.3004958688618062 0.30130833520472711 -5.7574995633818009
v 6.4978567090438926 0.38396654888212961 -5.8031483908876051
v 6.5300961520520477 0.22090048863524664 -6.1332839920135847
v 6.2347237474573598 0.24648262210756566 -6.2167348803464613
v 6.5402643139880343 0.25008295500846717 -6.2369364248110353
v 6.1517879314698867 0.48320162534290351 -6.2449253389519441
v 6.5602295963336017 0.43857988270671455 -6.2536333627631349
v 6.5402643139880343 0.25008295500846717 -6.2369364248110353
v 6.5300961520520477 0.22090048863524664 -6.1332839920135847
v 6.6109177982032215 0.00019693525881686827 -6.11895011057109
v 6.569853489061563 0.3696335516026068 -6.1418070663873374
v 6.5176610960753232 0.066228885588104497 -6.1608283884354123
v 6.5300961520520477 0.22090048863524664 -6.1332839920135847
v 6.5402643139880343 0.25008295500846717 -6.2369364248110353
v 6.5613951683044407 0 -5.7299212783378755
v 6.547688338702657 0.32676101429501059 -5.7220658554691211
v 6.574861746821119 -0.0023123911809299048 -5.8441787737673598
v 6.4978567090438926 0.38396654888212961 -5.8031483908876051
v 6.569853489061563 0.3696335516026068 -6.1418070663873374
v 6.5918939624572763 0.37224954359375312 -5.8226971400763841
v 6.5786151215837521 0.23242988341814888 -5.8759909955565002
v 6.569853489061563 0.3696335516026068 -6.1418070663873374
v 6.561074158332552 0.21704183067543509 -6.1017752069763844
v 6.5878833267346906 0.47938875304385736 -6.1117673995700148
v 6.5844275522003244 0.63825512199329093 -6.194757546548221
v 6.5602295963336017 0.43857988270671455 -6.2536333627631349
v 6.5402643139880343 0.25008295500846717 -6.2369364248110353
v 6.654223185449375 0.76637562482954424 -6.2483068501573937
v 6.6296653953668319 -0.0051820338976910196 -6.2462596017998049
v 6.574861746821119 -0.0023123911809299048 -5.8441787737673598
v 6.6765372622025403 0.2313044875653712 -5.841627116369418
v 6.6761818584764221 -0.00032064262038746958 -5.8317202928794929
v 6.574861746821119 -0.0023123911809299048 -5.8441787737673598
v 6.5918939624572763 0.37224954359375312 -5.8226971400763841
v 6.5786151215837521 0.23242988341814888 -5.8759909955565002
v 6.5786151215837521 0.23242988341814888 -5.8759909955565002
v 6.561074158332552 0.21704183067543509 -6.1017752069763844
v 6.6440002559737126 0.21674898293038017 -6.1052772996985363
v 6.5786151215837521 0.23242988341814888 -5.8759909955565002
v 6.5918939624572763 0.37224954359375312 -5.8226971400763841
v 6.569853489061563 0.3696335516026068 -6.1418070663873374
v 6.6296653953668319 -0.0051820338976910196 -6.2462596017998049
v 6.654223185449375 0.76637562482954424 -6.2483068501573937
v 6.7014224958991653 0.4956986577064702 -6.2042759878395701
v 6.547688338702657 0.32676101429501059 -5.7220658554691211
v 6.6729966499560973 -0.00035870271345390703 -5.736972803780076
v 6.7016655598407544 0.33116428099466244 -5.7451569414674992
v 6.547688338702657 0.32676101429501059 -5.7220658554691211
v 6.7016655598407544 0.33116428099466244 -5.7451569414674992
v 6.6060316112511828 0.46600728618531334 -5.7373903483173709
v 6.6060316112511828 0.46600728618531334 -5.7373903483173709
v 6.6876366413369013 0.45688304872721092 -5.9335436586638268
v 6.5878833267346906 0.47938875304385736 -6.1117673995700148
v 6.6044239660004056 0.52105132482701577 -5.8726146549892686
v 6.6534888381482968 0.76647859370722593 -5.7590254315692055
v 6.5844275522003244 0.63825512199329093 -6.194757546548221
v 6.6440002559737126 0.21674898293038017 -6.1052772996985363
v 6.7014224958991653 0.4956986577064702 -6.2042759878395701
v 6.6765372622025403 0.2313044875653712 -5.841627116369418
v 6.6296653953668319 -0.0051820338976910196 -6.2462596017998049
v 6.7014224958991653 0.4956986577064702 -6.2042759878395701
v 6.6440002559737126 0.21674898293038017 -6.1052772996985363
v 6.5844275522003244 0.63825512199329093 -6.194757546548221
v 6.6534888381482968 0.76647859370722593 -5.7590254315692055
v 6.654223185449375 0.76637562482954424 -6.2483068501573937
v 6.6060316112511828 0.46600728618531334 -5.7373903483173709
v 6.7016655598407544 0.33116428099466244 -5.7451569414674992
v 6.6534888381482968 0.76647859370722593 -5.7590254315692055
v 6.6765372622025403 0.2313044875653712 -5.841627116369418
v 6.7014224958991653 0.4956986577064702 -6.2042759878395701
v 6.7016655598407544 0.33116428099466244 -5.7451569414674992
v 6.6044239660004056 0.52105132482701577 -5.8726146549892686
v 6.7381713710828661 0.52969125828500407 -5.8444704006890795
v 6.6876366413369013 0.45688304872721092 -5.9335436586638268
v 6.7014224958991653 0.4956986577064702 -6.2042759878395701
v 6.751849942643589 0.77217806432923353 -6.1998095622128302
v 6.7381713710828661 0.52969125828500407 -5.8444704006890795
v 6.654223185449375 0.76637562482954424 -6.2483068501573937
v 6.751849942643589 0.77217806432923353 -6.1998095622128302
v 6.7014224958991653 0.4956986577064702 -6.2042759878395701
v 6.7381713710828661 0.52969125828500407 -5.8444704006890795
v 6.7758212892492384 0.76800313912678719 -5.7699604437914633
v 6.7016655598407544 0.33116428099466244 -5.7451569414674992
v 6.6534888381482968 0.76647859370722593 -5.7590254315692055
v 6.7016655598407544 0.33116428099466244 -5.7451569414674992
v 6.7758212892492384 0.76800313912678719 -5.7699604437914633
v 6.6534888381482968 0.76647859370722593 -5.7590254315692055
v 6.7758212892492384 0.76800313912678719 -5.7699604437914633
v 6.751849942643589 0.77217806432923353 -6.1998095622128302
v 6.1248891788871598 0.29509815453492527 -6.1160236979629348
v 6.1023317965324928 -0.00033421592573787694 -6.2121140589439383
v 6.0964989640435467 0.00079983291777074817 -6.1002795706532922
v 6.1880532898860325 0.49389040031636011 -5.6846933782237912
v 6.1517879314698867 0.48320162534290351 -6.2449253389519441
v 6.1248891788871598 0.29509815453492527 -6.1160236979629348
v 6.1248891788871598 0.29509815453492527 -6.1160236979629348
v 6.1517879314698867 0.48320162534290351 -6.2449253389519441
v 6.1023317965324928 -0.00033421592573787694 -6.2121140589439383
v 6.1918836534876815 -0.0042250132917414952 -5.6970554137803662
v 6.1880532898860325 0.49389040031636011 -5.6846933782237912
v 6.1583952903747541 0 -5.7919213145774986
v 6.0964989640435467 0.00079983291777074817 -6.1002795706532922
v 6.2214298819980112 0.050015496347479274 -6.1114652193460808
v 6.1248891788871598 0.29509815453492527 -6.1160236979629348
v 6.5878833267346906 0.47938875304385736 -6.1117673995700148
v 6.1517879314698867 0.48320162534290351 -6.2449253389519441
v 6.1880532898860325 0.49389040031636011 -5.6846933782237912
v 6.1583952903747541 0 -5.7919213145774986
v 6.2487470097042284 0.004777769782425798 -5.7831124949244215
v 6.1918836534876815 -0.0042250132917414952 -5.6970554137803662
v 6.1690233799256484 0.26348615250776258 -5.7971093063427652
v 6.2487470097042284 0.004777769782425798 -5.7831124949244215
v 6.1583952903747541 0 -5.7919213145774986
v 6.2300110681717182 0.40323017895182095 -6.1344891872193195
v 6.2394606978603324 0.26629195229057628 -6.0723371006175579
v 6.2214298819980112 0.050015496347479274 -6.1114652193460808
v 6.2214298819980112 0.050015496347479274 -6.1114652193460808
v 6.2394606978603324 0.26629195229057628 -6.0723371006175579
v 6.1248891788871598 0.29509815453492527 -6.1160236979629348
v 6.1918836534876815 -0.0042250132917414952 -5.6970554137803662
v 6.2947674163378045 0.35503322807439797 -5.6725177523022543
v 6.1880532898860325 0.49389040031636011 -5.6846933782237912
v 6.2300110681717182 0.40323017895182095 -6.1344891872193195
v 6.2741406091478664 0.40306260763997342 -5.7628098460529333
v 6.2394606978603324 0.26629195229057628 -6.0723371006175579
v 6.5176610960753232 0.066228885588104497 -6.1608283884354123
v 6.2140675235608152 0.04306674392403867 -6.2204962919335163
v 6.2214298819980112 0.050015496347479274 -6.1114652193460808
v 6.2487470097042284 0.004777769782425798 -5.7831124949244215
v 6.2947674163378045 0.35503322807439797 -5.6725177523022543
v 6.1918836534876815 -0.0042250132917414952 -5.6970554137803662
v 6.1023317965324928 -0.00033421592573787694 -6.2121140589439383
v 6.1517879314698867 0.48320162534290351 -6.2449253389519441
v 6.5402643139880343 0.25008295500846717 -6.2369364248110353
v 6.2347237474573598 0.24648262210756566 -6.2167348803464613
v 6.2741406091478664 0.40306260763997342 -5.7628098460529333
v 6.4978567090438926 0.38396654888212961 -5.8031483908876051
v 6.3004958688618062 0.30130833520472711 -5.7574995633818009
v 6.1023317965324928 -0.00033421592573787694 -6.2121140589439383
v 6.6296653953668319 -0.0051820338976910196 -6.2462596017998049
v 6.6109177982032215 0.00019693525881686827 -6.11895011057109
v 6.2947674163378045 0.35503322807439797 -5.6725177523022543
v 6.547688338702657 0.32676101429501059 -5.7220658554691211
v 6.1880532898860325 0.49389040031636011 -5.6846933782237912
v 6.5878833267346906 0.47938875304385736 -6.1117673995700148
v 6.1880532898860325 0.49389040031636011 -5.6846933782237912
v 6.6060316112511828 0.46600728618531334 -5.7373903483173709
v 6.2609348484865652 0.25764449325599142 -6.1342882143831732
v 6.2347237474573598 0.24648262210756566 -6.2167348803464613
v 6.5300961520520477 0.22090048863524664 -6.1332839920135847
v 6.547688338702657 0.32676101429501059 -5.7220658554691211
v 6.6060316112511828 0.46600728618531334 -5.7373903483173709
v 6.1880532898860325 0.49389040031636011 -5.6846933782237912
v 6.2947674163378045 0.35503322807439797 -5.6725177523022543
v 6.3004958688618062 0.30130833520472711 -5.7574995633818009
v 6.547688338702657 0.32676101429501059 -5.7220658554691211
v 6.5176610960753232 0.066228885588104497 -6.1608283884354123
v 6.6109177982032215 0.00019693525881686827 -6.11895011057109
v 6.5300961520520477 0.22090048863524664 -6.1332839920135847
v 6.5402643139880343 0.25008295500846717 -6.2369364248110353
v 6.6296653953668319 -0.0051820338976910196 -6.2462596017998049
v 6.5176610960753232 0.066228885588104497 -6.1608283884354123
v 6.5613951683044407 0 -5.7299212783378755
v 6.6729966499560973 -0.00035870271345390703 -5.736972803780076
v 6.547688338702657 0.32676101429501059 -5.7220658554691211
v 6.547688338702657 0.32676101429501059 -5.7220658554691211
v 6.4978567090438926 0.38396654888212961 -5.8031483908876051
v 6.574861746821119 -0.0023123911809299048 -5.8441787737673598
v 6.4978567090438926 0.38396654888212961 -5.8031483908876051
v 6.5918939624572763 0.37224954359375312 -5.8226971400763841
v 6.574861746821119 -0.0023123911809299048 -5.8441787737673598
v 6.561074158332552 0.21704183067543509 -6.1017752069763844
v 6.569853489061563 0.3696335516026068 -6.1418070663873374
v 6.6109177982032215 0.00019693525881686827 -6.11895011057109
v 6.5602295963336017 0.43857988270671455 -6.2536333627631349
v 6.654223185449375 0.76637562482954424 -6.2483068501573937
v 6.5402643139880343 0.25008295500846717 -6.2369364248110353
v 6.574861746821119 -0.0023123911809299048 -5.8441787737673598
v 6.6761818584764221 -0.00032064262038746958 -5.8317202928794929
v 6.5613951683044407 0 -5.7299212783378755
v 6.5786151215837521 0.23242988341814888 -5.8759909955565002
v 6.6765372622025403 0.2313044875653712 -5.841627116369418
v 6.574861746821119 -0.0023123911809299048 -5.8441787737673598
v 6.5786151215837521 0.23242988341814888 -5.8759909955565002
v 6.6440002559737126 0.21674898293038017 -6.1052772996985363
v 6.6765372622025403 0.2313044875653712 -5.841627116369418
v 6.6044239660004056 0.52105132482701577 -5.8726146549892686
v 6.5844275522003244 0.63825512199329093 -6.194757546548221
v 6.5878833267346906 0.47938875304385736 -6.1117673995700148
v 6.6109177982032215 0.00019693525881686827 -6.11895011057109
v 6.6440002559737126 0.21674898293038017 -6.1052772996985363
v 6.561074158332552 0.21704183067543509 -6.1017752069763844
v 6.5844275522003244 0.63825512199329093 -6.194757546548221
v 6.654223185449375 0.76637562482954424 -6.2483068501573937
v 6.5602295963336017 0.43857988270671455 -6.2536333627631349
v 6.6060316112511828 0.46600728618531334 -5.7373903483173709
v 6.6534888381482968 0.76647859370722593 -5.7590254315692055
v 6.6044239660004056 0.52105132482701577 -5.8726146549892686
v 6.5613951683044407 0 -5.7299212783378755
v 6.6761818584764221 -0.00032064262038746958 -5.8317202928794929
v 6.6729966499560973 -0.00035870271345390703 -5.736972803780076
v 6.5878833267346906 0.47938875304385736 -6.1117673995700148
v 6.7381713710828661 0.52969125828500407 -5.8444704006890795
v 6.6044239660004056 0.52105132482701577 -5.8726146549892686
v 6.6296653953668319 -0.0051820338976910196 -6.2462596017998049
v 6.6440002559737126 0.21674898293038017 -6.1052772996985363
v 6.6109177982032215 0.00019693525881686827 -6.11895011057109
v 6.6765372622025403 0.2313044875653712 -5.841627116369418
v 6.7016655598407544 0.33116428099466244 -5.7451569414674992
v 6.6729966499560973 -0.00035870271345390703 -5.736972803780076
v 6.6761818584764221 -0.00032064262038746958 -5.8317202928794929
v 6.6765372622025403 0.2313044875653712 -5.841627116369418
v 6.6729966499560973 -0.00035870271345390703 -5.736972803780076
v 6.6876366413369013 0.45688304872721092 -5.9335436586638268
v 6.7016655598407544 0.33116428099466244 -5.7451569414674992
v 6.7014224958991653 0.4956986577064702 -6.2042759878395701
v 6.6060316112511828 0.46600728618531334 -5.7373903483173709
v 6.751849942643589 0.77217806432923353 -6.1998095622128302
v 6.654223185449375 0.76637562482954424 -6.2483068501573937
v 6.6534888381482968 0.76647859370722593 -5.7590254315692055
v 6.7014224958991653 0.4956986577064702 -6.2042759878395701
v 6.5878833267346906 0.47938875304385736 -6.1117673995700148
v 6.6876366413369013 0.45688304872721092 -5.9335436586638268
v 6.5878833267346906 0.47938875304385736 -6.1117673995700148
v 6.7014224958991653 0.4956986577064702 -6.2042759878395701
v 6.7381713710828661 0.52969125828500407 -5.8444704006890795
v 6.6876366413369013 0.45688304872721092 -5.9335436586638268
v 6.7381713710828661 0.52969125828500407 -5.8444704006890795
v 6.7016655598407544 0.33116428099466244 -5.7451569414674992
v 6.751849942643589 0.77217806432923353 -6.1998095622128302
v 6.7758212892492384 0.76800313912678719 -5.7699604437914633
v 6.7381713710828661 0.52969125828500407 -5.8444704006890795
vn 0 0 -1
vn 0 0 -1
vn 0 0 -1
vn -1 0 0
vn -1 0 0
vn -1 0 0
vn -1 0 0
vn -1 0 0
vn -1 0 0
vn 0 -1 0
vn 0 -1 0
vn 0 -1 0
vn 0 0 -1
vn 0 0 -1
vn 0 0 -1
vn 0 0 -1
vn 0 0 -1
vn 0 0 -1
vn 0 -1 0
vn 0 -1 0
vn 0 -1 0
vn 0 0 1
vn 0 0 1
vn 0 0 1
vn 0 -1 0
vn 0 -1 0
vn 0 -1 0
vn 0 0 1
vn 0 0 1
vn 0 0 1
vn 1 0 0
vn 1 0 0
vn 1 0 0
vn 1 0 0
vn 1 0 0
vn 1 0 0
vn 0 0 1
vn 0 0 1
vn 0 0 1
vn 1 0 0
vn 1 0 0
vn 1 0 0
vn 1 0 0
vn 1 0 0
vn 1 0 0
vn 0 0 -1
vn 0 0 -1
vn 0 0 -1
vn 0 0 -1
vn 0 0 -1
vn 0 0 -1
vn 0 -1 0
vn 0 -1 0
vn 0 -1 0
vn 0 -1 0
vn 0 -1 0
vn 0 -1 0
vn 0 0 1
vn 0 0 1
vn 0 0 1
vn 0 0 1
vn 0 0 1
vn 0 0 1
vn 0 -1 0
vn 0 -1 0
vn 0 -1 0
vn 0 -1 0
vn 0 -1 0
vn 0 -1 0
vn 0 0 -1
vn 0 0 -1
vn 0 0 -1
vn 0 0 1
vn 0 0 1
vn 0 0 1
vn -1 0 0
vn -1 0 0
vn -1 0 0
vn -1 0 0
vn -1 0 0
vn -1 0 0
vn 0 -1 0
vn 0 -1 0
vn 0 -1 0
vn -1 0 0
vn -1 0 0
vn -1 0 0
vn -1 0 0
vn -1 0 0
vn -1 0 0
vn 0 0 -1
vn 0 0 -1
vn 0 0 -1
vn 0 0 -1
vn 0 0 -1
vn 0 0 -1
vn -1 0 0
vn -1 0 0
vn -1 0 0
vn 0 -1 0
vn 0 -1 0
vn 0 -1 0
vn -1 0 0
vn -1 0 0
vn -1 0 0
vn 1 0 0
vn 1 0 0
vn 1 0 0
vn 0 0 1
vn 0 0 1
vn 0 0 1
vn 0 0 1
vn 0 0 1
vn 0 0 1
vn 0 1 0
vn 0 1 0
vn 0 1 0
vn -1 0 0
vn -1 0 0
vn -1 0 0
vn 1 0 0
vn 1 0 0
vn 1 0 0
vn 1 0 0
vn 1 0 0
vn 1 0 0
vn -1 0 0
vn -1 0 0
vn -1 0 0
vn 0 0 1
vn 0 0 1
vn 0 0 1
vn 1 0 0
vn 1 0 0
vn 1 0 0
vn 0 0 -1
vn 0 0 -1
vn 0 0 -1
vn 1 0 0
vn 1 0 0
vn 1 0 0
vn 0 0 -1
vn 0 0 -1
vn 0 0 -1
vn 1 0 0
vn 1 0 0
vn 1 0 0
vn 0 0 1
vn 0 0 1
vn 0 0 1
vn 0 1 0
vn 0 1 0
vn 0 1 0
vn -1 0 0
vn -1 0 0
vn -1 0 0
vn -1 0 0
vn -1 0 0
vn -1 0 0
vn -1 0 0
vn -1 0 0
vn -1 0 0
vn -1 0 0
vn -1 0 0
vn -1 0 0
vn 0 0 1
vn 0 0 1
vn 0 0 1
vn 0 1 0
vn 0 1 0
vn 0 1 0
vn 0 -1 0
vn 0 -1 0
vn 0 -1 0
vn 0 0 -1
vn 0 0 -1
vn 0 0 -1
vn 1 0 0
vn 1 0 0
vn 1 0 0
vn 0 0 1
vn 0 0 1
vn 0 0 1
vn 0 0 1
vn 0 0 1
vn 0 0 1
vn 1 0 0
vn 1 0 0
vn 1 0 0
vn 0 1 0
vn 0 1 0
vn 0 1 0
vn 1 0 0
vn 1 0 0
vn 1 0 0
vn 0 0 -1
vn 0 0 -1
vn 0 0 -1
vn 0 0 -1
vn 0 0 -1
vn 0 0 -1
vn 0 0 -1
vn 0 -1 0
vn 0 -1 0
vn 0 -1 0
vn 0 0 1
vn 0 0 1
vn 0 0 1
vn 0 1 0
vn 0 1 0
vn 0 1 0
vn 0 -1 0
vn 0 -1 0
vn 0 -1 0
vn 0 0 1
vn 0 0 1
vn 0 0 1
vn 0 -1 0
vn 0 -1 0
vn 0 -1 0
vn 0 0 1
vn 0 0 1
vn 0 0 1
vn 0 0 -1
vn 0 0 -1
vn 0 0 -1
vn 0 0 1
vn 0 0 1
vn 0 0 1
vn -1 0 0
vn -1 0 0
vn -1 0 0
vn 0 0 -1
vn 0 0 -1
vn 0 0 -1
vn -1 0 0
vn -1 0 0
vn -1 0 0
vn 0 0 -1
vn 0 0 -1
vn 0 0 -1
vn 0 -1 0
vn 0 -1 0
vn 0 -1 0
vn 0 0 -1
vn 0 0 -1
vn 0 0 -1
vn 0 -1 0
vn 0 -1 0
vn 0 -1 0
vn -1 0 0
vn -1 0 0
vn -1 0 0
vn 0 0 1
vn 0 0 1
vn 0 0 1
vn 0 0 -1
vn 0 0 -1
vn 0 0 -1
vn -1 0 0
vn -1 0 0
vn -1 0 0
vn 0 -1 0
vn 0 -1 0
vn 0 -1 0
vn 0 -1 0
vn 0 -1 0
vn 0 -1 0
vn 1 0 0
vn 1 0 0
vn 1 0 0
vn 1 0 0
vn 1 0 0
vn 1 0 0
vn 1 0 0
vn 1 0 0
vn 1 0 0
vn 1 0 0
vn 1 0 0
vn 1 0 0
vn 0 0 -1
vn 0 1 0
vn 0 1 0
vn 0 1 0
vn 1 0 0
vn 1 0 0
vn 1 0 0
vn 0 -1 0
vn 0 -1 0
vn 0 -1 0
vn 1 0 0
vn 1 0 0
vn 1 0 0
vn 1 0 0
vn 1 0 0
vn 1 0 0
f 1//1 2//2 3//3
f 4//4 5//5 6//6
f 7//7 8//8 9//9
f 10//10 11//11 12//12
f 13//13 14//14 15//15
f 16//16 17//17 18//18
f 19//19 20//20 21//21
f 22//22 23//23 24//24
f 25//25 26//26 27//27
f 28//28 29//29 30//30
f 31//31 32//32 33//33
f 34//34 35//35 36//36
f 37//37 38//38 39//39
f 40//40 41//41 42//42
f 43//43 44//44 45//45
f 46//46 47//47 48//48
f 49//49 50//50 51//51
f 52//52 53//53 54//54
f 55//55 56//56 57//57
f 58//58 59//59 60//60
f 61//61 62//62 63//63
f 64//64 65//65 66//66
f 67//67 68//68 69//69
f 70//70 71//71 72//72
f 73//73 74//74 75//75
f 76//76 77//77 78//78
f 79//79 80//80 81//81
f 82//82 83//83 84//84
f 85//85 86//86 87//87
f 88//88 89//89 90//90
f 91//91 92//92 93//93
f 94//94 95//95 96//96
f 97//97 98//98 99//99
f 100//100 101//101 102//102
f 103//103 104//104 105//105
f 106//106 107//107 108//108
f 109//109 110//110 111//111
f 112//112 113//113 114//114
f 115//115 116//116 117//117
f 118//118 119//119 120//120
f 121//121 122//122 123//123
f 124//124 125//125 126//126
f 127//127 128//128 129//129
f 130//130 131//131 132//132
f 133//133 134//134 135//135
f 136//136 137//137 138//138
f 139//139 140//140 141//141
f 142//142 143//143 144//144
f 145//145 146//146 147//147
f 148//148 149//149 150//150
f 151//151 152//152 153//153
f 154//154 155//155 156//156
f 157//157 158//158 159//159
f 160//160 161//161 162//162
f 163//163 164//164 165//165
f 166//166 167//167 168//168
f 169//169 170//170 171//171
f 172//172 173//173 174//174
f 175//175 176//176 177//177
f 178//178 179//179 180//180
f 181//181 182//182 183//183
f 184//184 185//185 186//186
f 187//187 188//188 189//189
f 190//190 191//191 192//192
f 193//193 194//194 195//195
f 46//46 48//48 196//196
f 197//197 198//198 199//199
f 200//200 201//201 202//202
f 203//203 204//204 205//205
f 206//206 207//207 208//208
f 209//209 210//210 211//211
f 212//212 213//213 214//214
f 215//215 216//216 217//217
f 218//218 219//219 220//220
f 221//221 222//222 223//223
f 224//224 225//225 226//226
f 227//227 228//228 229//229
f 230//230 231//231 232//232
f 233//233 234//234 235//235
f 236//236 237//237 238//238
f 239//239 240//240 241//241
f 242//242 243//243 244//244
f 245//245 246//246 247//247
f 248//248 249//249 250//250
f 251//251 252//252 253//253
f 254//254 255//255 256//256
f 257//257 258//258 259//259
f 260//260 261//261 262//262
f 263//263 264//264 265//265
f 266//266 267//267 268//268
f 269//269 270//270 271//271
f 272//272 273//273 274//274
f 275//275 276//276 277//277
f 278//278 279//279 280//280
f 136//136 138//138 281//281
f 282//282 283//283 284//284
f 285//285 286//286 287//287
f 288//288 289//289 290//290
f 291//291 292//292 293//293
f 294//294 295//295 296//296
