# Rhino

mtllib reduced_railing.mtl
usemtl diffuse_0
v 4.4952452211159457 0.12675079710403431 -0.29110256825003272
v 4.6087255147005726 0.11841820753580308 -0.37864102553407775
v 4.6267864811878399 0.13747559607990201 -0.26572318572643711
v 4.484843188040835 0.95814162098854161 -0.34543911364915442
v 4.2643120582827141 0.95174471852813591 -0.0053750371120187407
v 4.4655942213531281 0.96286294211863255 -0.036822196388645145
v 4.4865880212041045 0.77913551950565241 -0.20671157735211604
v 4.6267864811878399 0.13747559607990201 -0.26572318572643711
v 4.60556421752894 0.7310252872933346 -0.19993219956944719
v 4.7784273549308924 0.45991673624005125 -0.2232105805041075
v 4.7775168603489391 0.12493412693874309 -0.18365892663937688
v 4.6267864811878399 0.13747559607990201 -0.26572318572643711
v 4.4952452211159457 0.12675079710403431 -0.29110256825003272
v 3.6759518470160439 0.3175119644023735 0.97329406393557449
v 3.6309791459221894 0.55733557735342354 1.0022947676331395
v 3.7459127813584301 0.68169454038112831 0.96368164890236263
v 4.1098916487438331 0.79397079683237615 0.8022087970106595
v 3.8862360680250498 0.81636484230520179 0.88466141506792673
v 4.2882777114643664 0.80467445959559514 0.49640558473871815
v 4.8018539798248998 0.82797684392115123 -0.1396356669876016
v 4.60556421752894 0.7310252872933346 -0.19993219956944719
v 4.6919169705232804 0.76233437593792475 -0.03360983603739251
v 4.7775168603489391 0.12493412693874309 -0.18365892663937688
v 4.6019572468463492 0.11584044221706381 0.053671986556042509
v 4.6267864811878399 0.13747559607990201 -0.26572318572643711
v 3.8895675037617181 0.30515280426023295 0.91560110864357525
v 3.6759518470160439 0.3175119644023735 0.97329406393557449
v 3.7630787476380205 0.29236283131882801 1.0973406356106352
v 4.4870284987491065 0.77699983347458834 0.15958983811443123
v 4.4777693642796237 1.0225316281412657 0.16336423299796946
v 4.6044685777228276 1.0415581996912466 0.1525419927822726
v 4.6858241179690774 0.32803929954711192 -0.13162399209763206
v 4.6019572468463492 0.11584044221706381 0.053671986556042509
v 4.7775168603489391 0.12493412693874309 -0.18365892663937688
v 3.717635289684218 0.99084355154314618 1.10643781013762
v 3.8593211505877645 0.72352863507126675 1.0177723651460533
v 3.7459127813584301 0.68169454038112831 0.96368164890236263
v 4.6919169705232804 0.76233437593792475 -0.03360983603739251
v 4.6858241179690774 0.32803929954711192 -0.13162399209763206
v 4.8018539798248998 0.82797684392115123 -0.1396356669876016
v 4.8018539798248998 0.82797684392115123 -0.1396356669876016
v 4.6044685777228276 1.0415581996912466 0.1525419927822726
v 4.6919169705232804 0.76233437593792475 -0.03360983603739251
v 3.7459127813584301 0.68169454038112831 0.96368164890236263
v 3.8593211505877645 0.72352863507126675 1.0177723651460533
v 3.8208296172521732 0.99455009083741808 1.0981906231073542
v 4.6858241179690774 0.32803929954711192 -0.13162399209763206
v 4.7775168603489391 0.12493412693874309 -0.18365892663937688
v 4.8018539798248998 0.82797684392115123 -0.1396356669876016
v 4.8018539798248998 0.82797684392115123 -0.1396356669876016
v 4.7775168603489391 0.12493412693874309 -0.18365892663937688
v 4.7784273549308924 0.45991673624005125 -0.2232105805041075
v 4.6087255147005726 0.11841820753580308 -0.37864102553407775
v 4.4952452211159457 0.12675079710403431 -0.29110256825003272
v 4.484843188040835 0.95814162098854161 -0.34543911364915442
v 3.717635289684218 0.99084355154314618 1.10643781013762
v 3.8862360680250498 0.81636484230520179 0.88466141506792673
v 3.8593211505877645 0.72352863507126675 1.0177723651460533
v 3.8862360680250498 0.81636484230520179 0.88466141506792673
v 3.717635289684218 0.99084355154314618 1.10643781013762
v 3.8208296172521732 0.99455009083741808 1.0981906231073542
v 4.3968680063928307 0.9984772438267725 0.38541480303145914
v 4.2882777114643664 0.80467445959559514 0.49640558473871815
v 3.9505447618519436 1.0061942204249923 0.78777236309402343
v 3.5403702012303602 0.067768311915509291 0.81795943645889668
v 3.5532818600522758 0.1292181396882412 0.98090981224711626
v 3.5269900147048152 0.96165313675126884 0.99313407266194487
v 3.8862360680250498 0.81636484230520179 0.88466141506792673
v 3.9505447618519436 1.0061942204249923 0.78777236309402343
v 4.2882777114643664 0.80467445959559514 0.49640558473871815
v 4.6297052787365649 0.92583516972417701 -0.33736998136275576
v 4.6087255147005726 0.11841820753580308 -0.37864102553407775
v 4.484843188040835 0.95814162098854161 -0.34543911364915442
v 4.4952452211159457 0.12675079710403431 -0.29110256825003272
v 4.4865880212041045 0.77913551950565241 -0.20671157735211604
v 4.484843188040835 0.95814162098854161 -0.34543911364915442
v 3.5532818600522758 0.1292181396882412 0.98090981224711626
v 3.6309791459221894 0.55733557735342354 1.0022947676331395
v 3.5269900147048152 0.96165313675126884 0.99313407266194487
v 4.6297052787365649 0.92583516972417701 -0.33736998136275576
v 4.60556421752894 0.7310252872933346 -0.19993219956944719
v 4.6267864811878399 0.13747559607990201 -0.26572318572643711
v 4.6087255147005726 0.11841820753580308 -0.37864102553407775
v 3.8624525266152889 0.11904808051088051 0.99485710181719755
v 3.6759518470160439 0.3175119644023735 0.97329406393557449
v 3.8895675037617181 0.30515280426023295 0.91560110864357525
v 3.8208296172521732 0.99455009083741808 1.0981906231073542
v 3.7630787476380205 0.29236283131882801 1.0973406356106352
v 3.7459127813584301 0.68169454038112831 0.96368164890236263
v 3.717635289684218 0.99084355154314618 1.10643781013762
v 3.7630787476380205 0.29236283131882801 1.0973406356106352
v 3.8208296172521732 0.99455009083741808 1.0981906231073542
v 3.6765195247220013 0.5237997164308188 1.1185095162037091
v 4.6044685777228276 1.0415581996912466 0.1525419927822726
v 4.631729722089621 0.98299031519423818 -0.030430296609399776
v 4.4870284987491065 0.77699983347458834 0.15958983811443123
v 3.5403702012303602 0.067768311915509291 0.81795943645889668
v 3.6759518470160439 0.3175119644023735 0.97329406393557449
v 3.6309791459221894 0.55733557735342354 1.0022947676331395
v 3.6524035597343416 0.11631723921877195 1.1112580531721112
v 3.6765195247220013 0.5237997164308188 1.1185095162037091
v 3.6759518470160439 0.3175119644023735 0.97329406393557449
v 3.6524035597343416 0.11631723921877195 1.1112580531721112
v 4.8018539798248998 0.82797684392115123 -0.1396356669876016
v 4.631729722089621 0.98299031519423818 -0.030430296609399776
v 4.6044685777228276 1.0415581996912466 0.1525419927822726
v 4.1294337087106783 0.78783588473558519 0.19899009023449099
v 3.6188531968596203 0.77330140105955025 0.83652089676929631
v 3.555243988817872 0.94928503234344286 0.83464544132722251
v 3.6188531968596203 0.77330140105955025 0.83652089676929631
v 4.1294337087106783 0.78783588473558519 0.19899009023449099
v 3.8014257754909018 0.78255272788849906 0.78675030091908016
v 4.60556421752894 0.7310252872933346 -0.19993219956944719
v 4.6858241179690774 0.32803929954711192 -0.13162399209763206
v 4.6919169705232804 0.76233437593792475 -0.03360983603739251
v 4.631729722089621 0.98299031519423818 -0.030430296609399776
v 4.6919169705232804 0.76233437593792475 -0.03360983603739251
v 4.4870284987491065 0.77699983347458834 0.15958983811443123
v 3.6548114060588333 0.96550480198093724 0.97303381489801621
v 4.0591075803874714 0.89806540672399926 0.5029280226198235
v 4.1230577923557865 0.94731102028600045 0.23976443221695759
v 3.6309791459221894 0.55733557735342354 1.0022947676331395
v 3.8862360680250498 0.81636484230520179 0.88466141506792673
v 3.8208296172521732 0.99455009083741808 1.0981906231073542
v 3.9505447618519436 1.0061942204249923 0.78777236309402343
v 3.5532818600522758 0.1292181396882412 0.98090981224711626
v 3.8624525266152889 0.11904808051088051 0.99485710181719755
v 3.5532818600522758 0.1292181396882412 0.98090981224711626
v 3.6759518470160439 0.3175119644023735 0.97329406393557449
v 4.4865880212041045 0.77913551950565241 -0.20671157735211604
v 4.60556421752894 0.7310252872933346 -0.19993219956944719
v 4.4655942213531281 0.96286294211863255 -0.036822196388645145
v 4.2643120582827141 0.95174471852813591 -0.0053750371120187407
v 4.484843188040835 0.95814162098854161 -0.34543911364915442
v 4.2811596192857673 0.79625908877929108 -0.055041051282354092
v 4.4865880212041045 0.77913551950565241 -0.20671157735211604
v 4.2811596192857673 0.79625908877929108 -0.055041051282354092
v 4.484843188040835 0.95814162098854161 -0.34543911364915442
v 4.1294337087106783 0.78783588473558519 0.19899009023449099
v 4.1230577923557865 0.94731102028600045 0.23976443221695759
v 4.2643120582827141 0.95174471852813591 -0.0053750371120187407
v 3.7630787476380205 0.29236283131882801 1.0973406356106352
v 3.8624525266152889 0.11904808051088051 0.99485710181719755
v 3.8895675037617181 0.30515280426023295 0.91560110864357525
v 4.8018539798248998 0.82797684392115123 -0.1396356669876016
v 4.6919169705232804 0.76233437593792475 -0.03360983603739251
v 4.631729722089621 0.98299031519423818 -0.030430296609399776
v 4.6044685777228276 1.0415581996912466 0.1525419927822726
v 4.638332899455393 0.81109110456105105 0.18016924134896148
v 4.6919169705232804 0.76233437593792475 -0.03360983603739251
v 4.6858241179690774 0.32803929954711192 -0.13162399209763206
v 4.60556421752894 0.7310252872933346 -0.19993219956944719
v 4.7784273549308924 0.45991673624005125 -0.2232105805041075
v 4.1230577923557865 0.94731102028600045 0.23976443221695759
v 4.3195593622253687 0.79117706798567888 0.15280965583799869
v 3.5403702012303602 0.067768311915509291 0.81795943645889668
v 3.6188531968596203 0.77330140105955025 0.83652089676929631
v 3.6759518470160439 0.3175119644023735 0.97329406393557449
v 4.6297052787365649 0.92583516972417701 -0.33736998136275576
v 4.60556421752894 0.7310252872933346 -0.19993219956944719
v 4.6297052787365649 0.92583516972417701 -0.33736998136275576
v 4.4655942213531281 0.96286294211863255 -0.036822196388645145
v 3.6759518470160439 0.3175119644023735 0.97329406393557449
v 3.5269900147048152 0.96165313675126884 0.99313407266194487
v 3.6548114060588333 0.96550480198093724 0.97303381489801621
v 3.555243988817872 0.94928503234344286 0.83464544132722251
v 4.2075298672353085 1.013341022199717 0.70545673299966283
v 4.1098916487438331 0.79397079683237615 0.8022087970106595
v 4.2882777114643664 0.80467445959559514 0.49640558473871815
v 4.2075298672353085 1.013341022199717 0.70545673299966283
v 4.2882777114643664 0.80467445959559514 0.49640558473871815
v 4.3968680063928307 0.9984772438267725 0.38541480303145914
v 3.6548114060588333 0.96550480198093724 0.97303381489801621
v 3.6309791459221894 0.55733557735342354 1.0022947676331395
v 4.3195593622253687 0.79117706798567888 0.15280965583799869
v 4.2811596192857673 0.79625908877929108 -0.055041051282354092
v 4.4865880212041045 0.77913551950565241 -0.20671157735211604
v 4.1294337087106783 0.78783588473558519 0.19899009023449099
v 4.2643120582827141 0.95174471852813591 -0.0053750371120187407
v 4.3195593622253687 0.79117706798567888 0.15280965583799869
v 3.6759518470160439 0.3175119644023735 0.97329406393557449
v 3.6309791459221894 0.55733557735342354 1.0022947676331395
v 4.6858241179690774 0.32803929954711192 -0.13162399209763206
v 4.6267864811878399 0.13747559607990201 -0.26572318572643711
v 4.6019572468463492 0.11584044221706381 0.053671986556042509
v 4.8018539798248998 0.82797684392115123 -0.1396356669876016
v 3.5269900147048152 0.96165313675126884 0.99313407266194487
v 3.6548114060588333 0.96550480198093724 0.97303381489801621
v 4.2643120582827141 0.95174471852813591 -0.0053750371120187407
v 4.2811596192857673 0.79625908877929108 -0.055041051282354092
v 4.3195593622253687 0.79117706798567888 0.15280965583799869
v 3.5532818600522758 0.1292181396882412 0.98090981224711626
v 3.5403702012303602 0.067768311915509291 0.81795943645889668
v 3.6309791459221894 0.55733557735342354 1.0022947676331395
v 4.0591075803874714 0.89806540672399926 0.5029280226198235
v 4.1294337087106783 0.78783588473558519 0.19899009023449099
v 4.3195593622253687 0.79117706798567888 0.15280965583799869
v 4.0591075803874714 0.89806540672399926 0.5029280226198235
v 4.3195593622253687 0.79117706798567888 0.15280965583799869
v 4.1230577923557865 0.94731102028600045 0.23976443221695759
v 4.7784273549308924 0.45991673624005125 -0.2232105805041075
v 4.1294337087106783 0.78783588473558519 0.19899009023449099
v 4.0591075803874714 0.89806540672399926 0.5029280226198235
v 3.8014257754909018 0.78255272788849906 0.78675030091908016
v 4.1230577923557865 0.94731102028600045 0.23976443221695759
v 3.555243988817872 0.94928503234344286 0.83464544132722251
v 4.6044685777228276 1.0415581996912466 0.1525419927822726
v 4.4777693642796237 1.0225316281412657 0.16336423299796946
v 4.3968680063928307 0.9984772438267725 0.38541480303145914
v 3.6765195247220013 0.5237997164308188 1.1185095162037091
v 4.6044685777228276 1.0415581996912466 0.1525419927822726
v 4.3968680063928307 0.9984772438267725 0.38541480303145914
v 4.2882777114643664 0.80467445959559514 0.49640558473871815
v 4.4777693642796237 1.0225316281412657 0.16336423299796946
v 4.4870284987491065 0.77699983347458834 0.15958983811443123
v 4.3968680063928307 0.9984772438267725 0.38541480303145914
v 4.2882777114643664 0.80467445959559514 0.49640558473871815
v 4.2882777114643664 0.80467445959559514 0.49640558473871815
v 4.638332899455393 0.81109110456105105 0.18016924134896148
v 4.6044685777228276 1.0415581996912466 0.1525419927822726
v 3.6524035597343416 0.11631723921877195 1.1112580531721112
v 3.5532818600522758 0.1292181396882412 0.98090981224711626
v 3.8624525266152889 0.11904808051088051 0.99485710181719755
v 3.6524035597343416 0.11631723921877195 1.1112580531721112
v 3.8624525266152889 0.11904808051088051 0.99485710181719755
v 3.7630787476380205 0.29236283131882801 1.0973406356106352
v 4.4865880212041045 0.77913551950565241 -0.20671157735211604
v 4.4655942213531281 0.96286294211863255 -0.036822196388645145
v 4.3195593622253687 0.79117706798567888 0.15280965583799869
v 4.638332899455393 0.81109110456105105 0.18016924134896148
v 4.4870284987491065 0.77699983347458834 0.15958983811443123
v 4.6919169705232804 0.76233437593792475 -0.03360983603739251
v 4.1294337087106783 0.78783588473558519 0.19899009023449099
v 3.555243988817872 0.94928503234344286 0.83464544132722251
v 4.1230577923557865 0.94731102028600045 0.23976443221695759
v 3.717635289684218 0.99084355154314618 1.10643781013762
v 3.8208296172521732 0.99455009083741808 1.0981906231073542
v 4.1098916487438331 0.79397079683237615 0.8022087970106595
v 4.2075298672353085 1.013341022199717 0.70545673299966283
v 3.9505447618519436 1.0061942204249923 0.78777236309402343
v 3.8208296172521732 0.99455009083741808 1.0981906231073542
v 4.2075298672353085 1.013341022199717 0.70545673299966283
v 3.8014257754909018 0.78255272788849906 0.78675030091908016
v 3.6548114060588333 0.96550480198093724 0.97303381489801621
v 3.6188531968596203 0.77330140105955025 0.83652089676929631
v 3.5403702012303602 0.067768311915509291 0.81795943645889668
v 3.555243988817872 0.94928503234344286 0.83464544132722251
v 3.6188531968596203 0.77330140105955025 0.83652089676929631
v 3.555243988817872 0.94928503234344286 0.83464544132722251
v 4.3968680063928307 0.9984772438267725 0.38541480303145914
v 3.8862360680250498 0.81636484230520179 0.88466141506792673
v 4.1098916487438331 0.79397079683237615 0.8022087970106595
v 3.8593211505877645 0.72352863507126675 1.0177723651460533
v 3.8593211505877645 0.72352863507126675 1.0177723651460533
v 4.1098916487438331 0.79397079683237615 0.8022087970106595
v 3.8208296172521732 0.99455009083741808 1.0981906231073542
v 4.0591075803874714 0.89806540672399926 0.5029280226198235
v 3.6548114060588333 0.96550480198093724 0.97303381489801621
v 3.8014257754909018 0.78255272788849906 0.78675030091908016
v 4.638332899455393 0.81109110456105105 0.18016924134896148
v 4.2882777114643664 0.80467445959559514 0.49640558473871815
vn 0 -1 0
vn 0 -1 0
vn 0 -1 0
vn 0 1 0
vn 0 1 0
vn 0 1 0
vn 0 0 1
vn 0 0 1
vn 0 0 1
vn 0 0 -1
vn 0 0 -1
vn 0 0 -1
vn 0 0 1
vn -1 0 0
vn -1 0 0
vn -1 0 0
vn 0 -1 0
vn 0 -1 0
vn 0 -1 0
vn -1 0 0
vn -1 0 0
vn -1 0 0
vn 0 -1 0
vn 0 -1 0
vn 0 -1 0
vn 0 1 0
vn 0 1 0
vn 0 1 0
vn 0 0 -1
vn 0 0 -1
vn 0 0 -1
vn 1 0 0
vn 1 0 0
vn 1 0 0
vn 0 0 -1
vn 0 0 -1
vn 0 0 -1
vn 1 0 0
vn 1 0 0
vn 1 0 0
vn 1 0 0
vn 1 0 0
vn 1 0 0
vn 0 0 1
vn 0 0 1
vn 0 0 1
vn 0 0 1
vn 0 0 1
vn 0 0 1
vn 1 0 0
vn 1 0 0
vn 1 0 0
vn 0 0 -1
vn 0 0 -1
vn 0 0 -1
vn -1 0 0
vn -1 0 0
vn -1 0 0
vn 0 1 0
vn 0 1 0
vn 0 1 0
vn 0 0 -1
vn 0 0 -1
vn 0 0 -1
vn -1 0 0
vn -1 0 0
vn -1 0 0
vn 0 0 -1
vn 0 0 -1
vn 0 0 -1
vn 0 0 -1
vn 0 0 -1
vn 0 0 -1
vn -1 0 0
vn -1 0 0
vn -1 0 0
vn 0 0 1
vn 0 0 1
vn 0 0 1
vn 1 0 0
vn 1 0 0
vn 1 0 0
vn 1 0 0
vn 0 0 -1
vn 0 0 -1
vn 0 0 -1
vn 1 0 0
vn 1 0 0
vn 1 0 0
vn 0 0 1
vn 0 0 1
vn 0 0 1
vn 0 0 1
vn -1 0 0
vn -1 0 0
vn -1 0 0
vn 0 0 1
vn 0 0 1
vn 0 0 1
vn 0 0 1
vn -1 0 0
vn -1 0 0
vn -1 0 0
vn 0 1 0
vn 0 1 0
vn 0 1 0
vn -1 0 0
vn -1 0 0
vn -1 0 0
vn 0 -1 0
vn 0 -1 0
vn 0 -1 0
vn -1 0 0
vn -1 0 0
vn -1 0 0
vn 0 0 -1
vn 0 0 -1
vn 0 0 -1
vn 1 0 0
vn 1 0 0
vn 1 0 0
vn -1 0 0
vn -1 0 0
vn -1 0 0
vn -1 0 0
vn -1 0 0
vn 0 0 -1
vn 0 0 -1
vn 0 0 -1
vn 0 0 1
vn 0 0 1
vn 0 0 1
vn -1 0 0
vn -1 0 0
vn -1 0 0
vn 0 0 -1
vn 0 0 -1
vn 0 0 -1
vn -1 0 0
vn -1 0 0
vn -1 0 0
vn 1 0 0
vn 1 0 0
vn 1 0 0
vn -1 0 0
vn -1 0 0
vn -1 0 0
vn 1 0 0
vn 1 0 0
vn 1 0 0
vn 0 0 -1
vn 0 0 -1
vn 0 0 -1
vn 0 1 0
vn 0 1 0
vn 1 0 0
vn 1 0 0
vn 1 0 0
vn 0 1 0
vn 1 0 0
vn 1 0 0
vn 1 0 0
vn 1 0 0
vn 0 1 0
vn 0 1 0
vn 0 1 0
vn 1 0 0
vn 1 0 0
vn 1 0 0
vn 1 0 0
vn 1 0 0
vn 1 0 0
vn 1 0 0
vn 1 0 0
vn 0 -1 0
vn 0 -1 0
vn 0 -1 0
vn 0 0 -1
vn 0 0 -1
vn 0 0 -1
vn 1 0 0
vn 1 0 0
vn -1 0 0
vn -1 0 0
vn -1 0 0
vn 0 0 -1
vn 0 0 1
vn 0 0 1
vn -1 0 0
vn -1 0 0
vn -1 0 0
vn 1 0 0
vn 1 0 0
vn 1 0 0
vn 0 -1 0
vn 0 -1 0
vn 0 -1 0
vn 1 0 0
vn 1 0 0
vn 1 0 0
vn -1 0 0
vn 1 0 0
vn 1 0 0
vn 1 0 0
vn 0 1 0
vn 0 1 0
vn 0 1 0
vn 0 1 0
vn 0 1 0
vn -1 0 0
vn 1 0 0
vn 1 0 0
vn 1 0 0
vn -1 0 0
vn -1 0 0
vn -1 0 0
vn -1 0 0
vn 0 0 1
vn 0 0 1
vn 0 0 1
vn 0 -1 0
vn 0 -1 0
vn 0 -1 0
vn 0 0 1
vn 0 0 1
vn 0 0 1
vn 1 0 0
vn 1 0 0
vn 1 0 0
vn 0 -1 0
vn 0 -1 0
vn 0 -1 0
vn -1 0 0
vn -1 0 0
vn -1 0 0
vn -1 0 0
vn 0 0 1
vn 0 0 1
vn 0 0 1
vn 0 1 0
vn 0 1 0
vn 0 1 0
vn 0 0 1
vn 0 0 1
vn 0 0 1
vn 0 0 -1
vn 0 0 -1
vn 0 0 -1
vn -1 0 0
vn 0 1 0
vn 0 -1 0
vn 0 -1 0
vn 0 -1 0
vn 0 0 1
vn 0 0 1
vn 0 0 1
vn 0 0 1
vn 0 0 1
vn 0 0 1
vn 0 -1 0
vn 0 -1 0
f 1//1 2//2 3//3
f 4//4 5//5 6//6
f 7//7 13//13 8//8 9//9
f 10//10 11//11 12//12
f 14//14 15//15 16//16
f 17//17 18//18 19//19
f 20//20 21//21 22//22
f 23//23 24//24 25//25
f 26//26 27//27 28//28
f 29//29 30//30 31//31
f 32//32 33//33 34//34
f 35//35 36//36 37//37
f 38//38 39//39 40//40
f 41//41 42//42 43//43
f 44//44 45//45 46//46
f 47//47 48//48 49//49
f 50//50 51//51 52//52
f 53//53 54//54 55//55
f 56//56 57//57 58//58
f 59//59 60//60 61//61
f 62//62 63//63 64//64
f 65//65 66//66 67//67
f 68//68 69//69 70//70
f 71//71 72//72 73//73
f 74//74 75//75 76//76
f 77//77 78//78 79//79
f 80//80 81//81 82//82
f 82//82 83//83 80//80
f 84//84 85//85 86//86
f 87//87 88//88 89//89
f 90//90 91//91 92//92
f 91//91 90//90 93//93
f 94//94 95//95 96//96
f 97//97 98//98 99//99
f 91//91 93//93 100//100
f 101//101 102//102 103//103
f 104//104 105//105 106//106
f 107//107 108//108 109//109
f 110//110 111//111 112//112
f 113//113 114//114 115//115
f 116//116 117//117 118//118
f 119//119 120//120 121//121
f 122//122 102//102 101//101
f 123//123 124//124 125//125
f 103//103 102//102 126//126
f 127//127 128//128 129//129
f 130//130 131//131 132//132
f 133//133 134//134 135//135
f 136//136 137//137 138//138
f 139//139 140//140 141//141
f 142//142 143//143 144//144
f 145//145 146//146 147//147
f 148//148 149//149 150//150
f 151//151 152//152 153//153
f 5//5 154//154 6//6
f 6//6 154//154 155//155
f 156//156 157//157 158//158
f 4//4 6//6 159//159
f 160//160 161//161 162//162
f 89//89 88//88 163//163
f 164//164 165//165 166//166
f 167//167 168//168 169//169
f 170//170 171//171 172//172
f 157//157 173//173 174//174
f 175//175 176//176 177//177
f 178//178 179//179 180//180
f 181//181 157//157 182//182
f 183//183 184//184 185//185
f 152//152 186//186 153//153
f 187//187 78//78 188//188
f 189//189 190//190 191//191
f 192//192 193//193 194//194
f 195//195 196//196 197//197
f 198//198 199//199 200//200
f 201//201 184//184 183//183
f 202//202 203//203 204//204
f 165//165 205//205 206//206
f 207//207 208//208 209//209
f 16//16 15//15 210//210
f 211//211 212//212 213//213
f 214//214 215//215 216//216
f 216//216 215//215 217//217
f 218//218 219//219 220//220
f 221//221 222//222 223//223
f 224//224 225//225 226//226
f 227//227 228//228 229//229
f 230//230 231//231 232//232
f 233//233 234//234 235//235
f 236//236 16//16 210//210
f 237//237 238//238 239//239
f 240//240 241//241 242//242
f 243//243 244//244 245//245
f 246//246 247//247 248//248
f 65//65 67//67 249//249
f 250//250 240//240 242//242
f 251//251 252//252 253//253
f 254//254 255//255 256//256
f 257//257 258//258 259//259
f 231//231 260//260 261//261
